<?xml version="1.0" encoding="UTF-8" standalone="no"?>
<!-- Created with Inkscape (http://www.inkscape.org/) -->

<svg
   version="1.1"
   id="svg1"
   width="1268.0454"
   height="1340.4136"
   viewBox="0 0 1268.0454 1340.4136"
   sodipodi:docname="Firma_Antonio-Tarin.svg"
   inkscape:version="1.4 (e7c3feb100, 2024-10-09)"
   xmlns:inkscape="http://www.inkscape.org/namespaces/inkscape"
   xmlns:sodipodi="http://sodipodi.sourceforge.net/DTD/sodipodi-0.dtd"
   xmlns="http://www.w3.org/2000/svg"
   xmlns:svg="http://www.w3.org/2000/svg">
  <defs
     id="defs1" />
  <sodipodi:namedview
     id="namedview1"
     pagecolor="#ffffff"
     bordercolor="#000000"
     borderopacity="0.25"
     inkscape:showpageshadow="2"
     inkscape:pageopacity="0.0"
     inkscape:pagecheckerboard="0"
     inkscape:deskcolor="#d1d1d1"
     inkscape:zoom="0.33181562"
     inkscape:cx="528.90819"
     inkscape:cy="543.9768"
     inkscape:window-width="1536"
     inkscape:window-height="832"
     inkscape:window-x="0"
     inkscape:window-y="0"
     inkscape:window-maximized="1"
     inkscape:current-layer="g1" />
  <g
     inkscape:groupmode="layer"
     inkscape:label="Image"
     id="g1">
    <path
       style="fill:#000000;stroke-width:1.41713"
       d="m 664.3031,1241.6193 c -0.77706,-1.1093 -1.41283,-2.4921 -1.41283,-3.0727 0,-0.5806 -0.61009,-2.2255 -1.35575,-3.6552 -0.74567,-1.4298 -1.35828,-3.2376 -1.36136,-4.0173 -0.003,-0.7799 -0.8198,-3.1031 -1.81495,-5.1628 -1.51832,-3.1425 -1.79222,-5.4691 -1.70287,-14.4646 0.0585,-5.8959 -0.31646,-11.7749 -0.83339,-13.0645 -1.56662,-3.908 -2.37287,-18.4196 -1.1503,-20.704 0.82425,-1.5401 0.81647,-2.7651 -0.034,-5.3419 -1.49364,-4.5257 -1.48811,-4.4383 -2.5891,-41.0385 -0.53304,-17.7203 -1.37295,-37.7322 -1.86646,-44.4709 -0.49352,-6.7387 -1.07219,-15.5195 -1.28595,-19.5128 -0.21376,-3.9933 -0.87841,-8.6899 -1.47699,-10.437 -0.59859,-1.7471 -1.39297,-8.4858 -1.76528,-14.9749 -0.37233,-6.4891 -1.19191,-13.6363 -1.82132,-15.8825 -1.24177,-4.4317 -2.03236,-29.20351 -1.7089,-53.54662 0.0775,-5.83279 -0.38379,-10.23666 -1.42595,-13.61354 -0.91976,-2.98027 -1.86925,-10.66004 -2.35636,-19.05897 -0.44873,-7.73704 -1.44167,-16.31357 -2.20655,-19.05896 -1.69043,-6.0675 -4.97069,-34.35231 -4.99321,-43.05495 -0.009,-3.46409 -0.50096,-8.64483 -1.0933,-11.51274 -0.80574,-3.901 -0.82242,-6.31736 -0.0662,-9.59346 0.79983,-3.46509 0.71835,-5.9873 -0.39034,-12.08409 -0.77062,-4.23774 -1.36964,-9.13441 -1.33115,-10.88148 0.29698,-13.47963 -0.33664,-22.30138 -2.08595,-29.04224 -0.32385,-1.24791 -0.97177,-6.5572 -1.43985,-11.7984 -0.46807,-5.24123 -1.09376,-10.5505 -1.39042,-11.79841 -0.29665,-1.24792 -0.7236,-3.90256 -0.94876,-5.89921 -0.22517,-1.99666 -0.78621,-5.87651 -1.24675,-8.62191 -0.46052,-2.7454 -1.2705,-9.0757 -1.79993,-14.06734 -0.52942,-4.99163 -1.60752,-11.03647 -2.39579,-13.43297 -1.03727,-3.15353 -1.26443,-5.91154 -0.82232,-9.98327 0.84578,-7.78932 0.60187,-12.94514 -0.88865,-18.78575 -0.77278,-3.02811 -1.23262,-9.09723 -1.16898,-15.4287 0.10756,-10.70408 -1.04651,-17.89227 -3.80828,-23.71971 -1.07089,-2.25963 -1.29686,-3.77613 -0.71701,-4.81225 0.52803,-0.94353 0.51924,-1.92193 -0.0234,-2.59982 -0.5624,-0.70267 -0.40648,-3.65388 0.44102,-8.3475 0.83845,-4.64344 1.10328,-9.55056 0.73473,-13.61356 -0.31695,-3.49414 -0.75431,-9.21183 -0.97191,-12.70597 -0.39498,-6.34252 -1.357,-11.18915 -3.62691,-18.27208 -0.66115,-2.06302 -1.23712,-6.14709 -1.27994,-9.0757 -0.069,-4.72271 -0.55542,-18.03558 -2.1508,-58.87136 -0.25351,-6.48912 -0.89786,-13.9983 -1.4319,-16.68704 -0.53403,-2.68872 -0.98543,-6.97699 -1.00311,-9.52948 -0.0177,-2.55247 -0.58484,-5.63875 -1.26033,-6.85839 -1.04263,-1.88257 -1.02041,-2.91077 0.14713,-6.80678 1.15343,-3.84896 1.20153,-5.68723 0.29816,-11.39601 -0.5924,-3.74372 -1.23699,-14.56651 -1.43241,-24.05061 -0.19541,-9.4841 -0.80968,-18.67325 -1.36504,-20.42032 -0.55536,-1.74708 -1.36964,-6.64795 -1.80951,-10.89084 -0.75452,-7.27787 -1.28138,-10.00054 -3.73196,-19.28586 -0.55989,-2.12145 -1.10063,-7.53283 -1.20166,-12.02531 -0.20902,-9.29586 -2.52414,-26.58828 -3.88528,-29.02051 -1.49619,-2.67354 0.25105,-7.90276 3.69879,-11.06987 1.72437,-1.58402 3.07328,-3.58923 2.99756,-4.45602 -0.0914,-1.04722 1.68939,-2.60613 5.30779,-4.64631 8.55721,-4.82487 23.13467,-11.73278 28.37534,-13.44639 2.62819,-0.85939 5.00064,-1.92189 5.27209,-2.36111 0.27145,-0.43923 1.03218,-0.7986 1.69051,-0.7986 1.85476,0 8.03095,-2.7659 7.45725,-3.3396 -0.2808,-0.28081 -3.89069,-0.85132 -8.02196,-1.26778 -4.77857,-0.48174 -7.86137,-1.23583 -8.47331,-2.0727 -0.60515,-0.82761 -3.30425,-1.50385 -7.27792,-1.82343 -14.00114,-1.12603 -26.72471,-1.72163 -35.78736,-1.67519 -28.45231,0.14577 -28.91139,0.16953 -30.31078,1.56894 -1.80669,1.80669 -6.92428,2.85566 -6.92428,1.41931 0,-0.58539 -1.03151,-2.02032 -2.29223,-3.18872 -1.38902,-1.28729 -2.83805,-4.22051 -3.67747,-7.44411 -0.7619,-2.92587 -2.4163,-7.07945 -3.67646,-9.23019 -2.14766,-3.66546 -2.2013,-4.04766 -0.85618,-6.10058 1.36383,-2.08145 10.67411,-9.50173 11.92191,-9.50173 0.32422,0 2.61901,-1.61593 5.09953,-3.59096 2.48053,-1.97501 6.82725,-4.433 9.65942,-5.46219 2.83216,-1.02919 8.00822,-3.29047 11.50236,-5.02507 7.54286,-3.74452 21.25208,-9.5186 22.59969,-9.5186 0.79707,0 8.09259,-2.56682 15.51826,-5.45985 0.99832,-0.38895 3.82948,-1.48279 6.29147,-2.43077 7.7771,-2.99453 6.40302,-4.7478 -5.45077,-6.95496 -3.95654,-0.7367 -12.91139,-2.62534 -19.89968,-4.19696 -6.98829,-1.57163 -14.5438,-3.20736 -16.79004,-3.63494 -2.24624,-0.42759 -5.51349,-1.37264 -7.26057,-2.10014 -1.74707,-0.72749 -5.62692,-1.60267 -8.62191,-1.94485 -2.99498,-0.34217 -13.85811,-1.81605 -24.1403,-3.27532 -16.75195,-2.37746 -45.82922,-4.97831 -53.00314,-4.74094 -2.82167,0.0934 -25.15988,0.17075 -29.94981,0.10373 -13.44275,-0.18803 -25.75495,0.50926 -28.95397,1.63976 -2.04521,0.72277 -8.21102,1.51327 -13.70182,1.7567 -5.49081,0.2434 -13.96523,0.83272 -18.83208,1.30955 -10.01052,0.98083 -22.34329,0.0181 -35.5221,-2.77266 -17.45601,-3.69662 -20.95525,-4.52129 -24.53771,-5.78291 -2.03334,-0.71606 -7.37264,-2.42105 -11.86511,-3.78888 -4.49246,-1.36783 -8.68223,-3.21072 -9.31057,-4.0953 -0.62835,-0.88458 -1.92139,-1.73836 -2.87342,-1.8973 -1.87126,-0.31238 -18.36267,-14.75703 -30.6379,-26.83538 -4.18523,-4.1181 -7.94985,-7.48746 -8.36583,-7.48746 -1.36449,0 -5.68035,-7.38892 -5.13935,-8.79874 0.39672,-1.0338 1.14846,-1.19621 3.01579,-0.65157 1.36806,0.39901 4.7336,0.81025 7.479,0.91385 5.69194,0.21478 15.76839,2.28476 21.78168,4.47454 2.24623,0.81799 4.90087,1.62296 5.8992,1.78882 0.99833,0.16586 3.24186,0.74517 4.98564,1.28734 1.74379,0.54217 4.47643,0.98576 6.07255,0.98576 1.59611,0 3.1144,0.34364 3.37398,0.76365 0.25957,0.41999 4.26564,2.2808 8.90237,4.13512 4.63673,1.85432 9.65563,3.95964 11.15313,4.67846 1.49748,0.71884 4.15212,1.55429 5.89919,1.85653 1.74707,0.30225 5.21854,1.25707 7.71435,2.12182 2.49581,0.86476 6.98829,2.07292 9.98327,2.68483 2.99499,0.6119 6.69964,1.4964 8.23257,1.96556 1.53292,0.46914 3.82991,0.853 5.10442,0.853 1.2745,0 4.04861,0.61086 6.16469,1.35744 3.79326,1.33836 8.9165,1.45578 62.6334,1.43562 5.74038,-0.003 13.0917,0.12187 16.33626,0.2757 3.24456,0.1538 14.06733,0.56505 24.05061,0.91389 9.98327,0.34884 20.39762,1.01254 23.14303,1.4749 2.7454,0.46235 11.32193,1.48527 19.05896,2.27315 7.73704,0.78787 15.49676,1.79245 17.24384,2.23239 1.74707,0.43995 5.62693,1.28611 8.62191,1.88036 7.51709,1.49147 14.75534,3.28519 25.41197,6.29739 14.92586,4.21893 24.21387,6.51469 29.49601,7.29067 5.66266,0.83188 13.74131,2.79804 20.42033,4.96984 2.49581,0.81155 6.17147,1.91765 8.16812,2.45799 1.99666,0.54035 5.46812,1.57874 7.71435,2.30756 2.24624,0.7288 7.29657,2.10448 11.22298,3.05705 5.17289,1.25497 7.61634,2.33888 8.87248,3.93582 0.95347,1.21213 2.49579,2.44578 3.42738,2.74145 1.00617,0.31936 2.26906,2.27551 3.11074,4.8184 1.3044,3.94087 1.29412,4.53022 -0.12925,7.42196 -1.13489,2.30566 -2.39107,3.35339 -4.72265,3.93899 -1.74707,0.43879 -3.68663,1.2191 -4.31014,1.73402 -0.78703,0.64995 -1.98836,0.58216 -3.92919,-0.22175 -2.59416,-1.07455 -2.96003,-0.98059 -5.07853,1.30411 -1.79166,1.93222 -2.81862,2.34442 -4.77203,1.91537 -6.05127,-1.32907 -45.61072,14.31458 -67.227,26.5847 -13.2428,7.51705 -15.06699,9.18342 -10.20485,9.3219 12.74014,0.36285 32.20847,2.22511 37.43726,3.58108 1.74708,0.45306 6.64795,1.24159 10.89085,1.75227 4.24288,0.51069 8.32694,1.07165 9.0757,1.24658 0.74874,0.17493 2.99498,0.62426 4.99164,0.99851 5.28151,0.98995 10.9126,2.92821 20.98759,7.22405 3.05739,1.30363 5.99913,2.37025 6.53717,2.37025 1.95419,0 5.60153,2.13545 5.60153,3.27959 0,0.6452 1.41441,1.84428 3.14313,2.66462 5.26043,2.49622 5.15948,6.71108 -0.16159,6.74787 -1.14744,0.008 -2.47693,0.89026 -3.09786,2.05593 -1.41744,2.661 -3.53607,4.24613 -5.72323,4.2821 -3.80507,0.0625 -10.12163,4.2613 -17.63665,11.72343 -9.32607,9.26042 -10.86911,11.49532 -11.49094,16.64321 -0.25783,2.13452 -0.84292,6.12719 -1.3002,8.87258 -0.45728,2.7454 -0.62571,10.09672 -0.37429,16.33626 0.52092,12.92802 0.52442,11.59225 -0.0761,29.04223 -0.24911,7.23788 -0.46019,14.9976 -0.4691,17.24384 -0.009,2.24623 -0.43003,6.84132 -0.93582,10.21131 -0.97978,6.52799 -0.2658,14.0303 2.42016,25.4305 1.27592,5.41541 1.31788,8.27359 0.35318,24.05059 -0.60214,9.84766 -1.42597,20.57528 -1.83074,23.83917 -0.81716,6.58919 0.97777,17.03868 4.20312,24.46924 1.34358,3.09533 1.60588,4.96294 1.08347,7.71435 -0.3791,1.99665 -0.3198,5.67231 0.13179,8.16812 0.45159,2.49583 1.02785,11.46645 1.28059,19.93474 0.3957,13.2572 0.25822,15.61935 -0.98922,16.99777 -1.27683,1.41086 -1.30323,2.11487 -0.22254,5.93101 0.6781,2.39444 1.27904,9.19861 1.34432,15.22097 0.16348,15.08111 1.31085,27.67393 2.78672,30.5854 1.51806,2.99469 1.5754,6.21023 0.19305,10.82413 -0.88359,2.94913 -0.73188,4.83799 0.96058,11.96079 1.50452,6.33174 1.92079,10.38394 1.65553,16.11585 -0.22691,4.90355 0.0803,8.92223 0.85456,11.17476 1.5662,4.55713 1.51644,9.77754 -0.15246,15.99526 -1.96525,7.32175 -1.70462,9.92801 1.81514,18.15139 2.40799,5.62593 3.17648,8.69062 3.17648,12.66752 0,2.88537 0.56084,8.66897 1.24627,12.85246 0.68546,4.18347 1.16426,11.44018 1.06402,16.12602 -0.15175,7.09344 -0.46189,8.72418 -1.85268,9.74114 -1.4014,1.02473 -1.50402,1.58664 -0.63718,3.48912 0.56827,1.24724 1.25582,5.03186 1.52786,8.41027 0.27205,3.37842 0.9555,10.67137 1.51879,16.20655 0.78089,7.67367 0.76315,12.13737 -0.0747,18.79364 -1.09007,8.6602 -1.08026,8.76132 1.2309,12.70502 1.4598,2.49096 2.32969,5.34311 2.32969,7.63846 0,2.24116 0.90052,5.27431 2.31983,7.81374 1.66199,2.97361 2.54916,6.37333 3.12852,11.98882 0.44478,4.311 1.19834,8.31444 1.67459,8.89656 1.08519,1.3264 1.4245,22.34979 0.57087,35.37158 -0.51789,7.90025 -0.34545,10.8693 0.88619,15.25887 1.24617,4.44128 1.3477,6.29642 0.54849,10.02292 -0.63203,2.9471 -0.68469,5.75017 -0.14808,7.88418 0.45794,1.8212 1.10635,8.80329 1.44089,15.51576 0.39341,7.89352 1.08067,13.11804 1.94568,14.79077 0.8806,1.70292 1.35087,5.41757 1.3768,10.87565 0.0217,4.5591 0.39699,9.2299 0.83407,10.3795 0.47373,1.246 0.41418,4.1484 -0.14741,7.1864 -0.51816,2.803 -0.66307,5.7706 -0.322,6.5947 0.34106,0.8241 0.53292,4.153 0.42637,7.3976 -0.10657,3.2446 -0.23206,15.0883 -0.27891,26.3195 -0.0691,16.5762 0.20909,21.5617 1.47794,26.4834 0.85972,3.3347 1.50839,7.623 1.44148,9.5295 -0.22215,6.3311 1.11084,23.3914 2.04364,26.1557 2.38281,7.0611 3.38018,40.921 1.49377,50.712 -0.7687,3.9898 -0.76575,6.0578 0.0113,8.2077 0.69091,1.9108 1.08006,12.8597 1.16085,32.6613 0.0995,24.3739 -0.10515,29.9305 -1.12549,30.577 -2.01244,1.2747 -3.32062,0.9496 -4.82584,-1.1995 z M 682.40303,195.90515 c -3.24726,-0.99549 -3.73357,-1.53366 -4.60921,-5.10076 -0.86477,-3.52278 -1.3382,-4.06132 -4.05966,-4.61791 -1.6944,-0.34654 -3.24073,-1.11008 -3.4363,-1.69676 -0.19555,-0.58668 -1.50499,-2.09084 -2.90986,-3.34259 -1.40489,-1.25175 -2.35155,-2.80435 -2.10371,-3.45021 0.24784,-0.64587 -0.49084,-1.83374 -1.64151,-2.63971 -3.24159,-2.27048 -1.41999,-3.88728 9.24464,-8.20524 10.37019,-4.19875 17.16502,-7.75534 21.15676,-11.07405 1.41101,-1.17309 3.01614,-2.13289 3.56697,-2.13289 1.35262,0 8.821,-3.34307 16.55683,-7.41133 7.65968,-4.0282 25.99336,-13.06316 30.40359,-14.98307 1.74707,-0.76056 4.60592,-2.12026 6.35299,-3.02156 7.12433,-3.67537 20.95086,-8.41625 29.34441,-10.06168 4.90824,-0.96219 9.60492,-2.09835 10.43706,-2.52481 2.39811,-1.22902 20.76126,-5.60334 30.5552,-7.27863 21.19604,-3.62568 34.78014,-5.20755 51.7315,-6.02422 25.02752,-1.20572 49.39323,-1.81775 53.92422,-1.35449 2.7873,0.28497 14.25697,0.47373 25.48815,0.41945 16.57047,-0.0801 21.61804,-0.40976 26.7733,-1.748752 3.49416,-0.90756 7.57822,-1.788535 9.0757,-1.957755 10.3499,-1.169531 12.097,-1.14928 13.1776,0.152725 0.6116,0.736965 2.083,1.339927 3.2698,1.339927 1.9097,0 2.1578,0.414299 2.1578,3.603695 0,3.4651 -0.187,3.69213 -4.8612,5.90341 -11.39978,5.39295 -42.55958,8.34603 -95.44385,9.0454 -13.8234,0.18281 -26.13668,0.75885 -28.2216,1.32024 -2.03428,0.54778 -7.3352,1.16856 -11.77986,1.37951 -9.19913,0.43663 -17.80968,1.73891 -24.41745,3.69298 -2.49581,0.73805 -7.19248,1.79181 -10.43705,2.34165 -3.24457,0.54984 -7.32863,1.75264 -9.0757,2.67289 -1.74707,0.92025 -4.19751,1.88305 -5.44542,2.13957 -8.58537,1.76474 -15.21572,3.5318 -18.88318,5.03259 -2.34291,0.95875 -5.45567,2.00726 -6.91722,2.33001 -1.46156,0.32275 -5.34143,1.84244 -8.62192,3.37711 -3.28049,1.53467 -8.00657,3.50501 -10.5024,4.37854 -2.49581,0.87354 -6.96426,3.06333 -9.92988,4.86621 -2.9656,1.80288 -5.78591,3.27795 -6.26732,3.27795 -0.4814,0 -2.13906,0.95906 -3.68367,2.13124 -1.5446,1.17219 -4.24961,2.60349 -6.01112,3.18067 -1.76151,0.57719 -6.65347,3.29379 -10.87099,6.03689 -4.21753,2.74312 -8.0145,4.98747 -8.43771,4.98747 -0.4232,0 -3.08677,1.77521 -5.91905,3.94492 -2.83227,2.16971 -6.15982,4.47918 -7.39454,5.13217 -1.23472,0.65297 -4.29777,3.11741 -6.80677,5.47651 -2.50901,2.3591 -5.85689,4.56746 -7.43972,4.90746 -1.58284,0.34001 -3.87338,1.51175 -5.0901,2.60387 -4.95348,4.44619 -6.15688,4.7422 -11.99855,2.95136 z"
       id="path1"
       sodipodi:nodetypes="csssssssssssssssssscsssssssssssssssssssssssssssssssssssssssssssssssssssssssssssssssssssssssssssssssssssssssssssscssssssssssssssssssssssssssssssscssssssscssssssssssssssssssssssssssssssssssssssssssssssssssccssssssssssssssssssssssssssssssssssssssssssssssss" />
  </g>
</svg>
